<svg xmlns="http://www.w3.org/2000/svg" viewBox="0 0 64 64" fill="none">
  <circle cx="32" cy="32" r="32" fill="#4ECDC4"/>
  <g transform="translate(14, 8)" fill="#FFFFFF">
    <!-- Head -->
    <circle cx="26" cy="6" r="5.5"/>
    <!-- Body + Arms -->
    <path d="M18 14 L26 12 L34 16 L30 18 L26 16 L22 20 L30 26 L26 30 L16 22 L18 14Z" fill-rule="evenodd"/>
    <!-- Front leg (stride) -->
    <path d="M22 20 L14 32 L10 30 L16 22Z"/>
    <path d="M14 32 L8 44 L12 45 L16 34Z"/>
    <!-- Back leg -->
    <path d="M22 20 L30 34 L34 32 L26 22Z"/>
    <path d="M30 34 L34 46 L30 47 L26 36Z"/>
    <!-- Front arm -->
    <path d="M26 16 L34 16 L36 24 L32 24Z"/>
    <!-- Back arm -->
    <path d="M22 16 L14 22 L16 26 L24 18Z"/>
  </g>
</svg>
